<svg xmlns="http://www.w3.org/2000/svg" xmlns:xlink="http://www.w3.org/1999/xlink" width="1210" zoomAndPan="magnify" viewBox="0 0 907.5 340.499986" height="454" preserveAspectRatio="xMidYMid meet" version="1.0">
<metadata><ContainsAiGeneratedContent>Yes</ContainsAiGeneratedContent></metadata>
<defs>
<filter x="0%" y="0%" width="100%" height="100%" id="457f711dfe">
<feColorMatrix values="0 0 0 0 1 0 0 0 0 1 0 0 0 0 1 0 0 0 1 0" color-interpolation-filters="sRGB"/>
</filter>
<filter x="0%" y="0%" width="100%" height="100%" id="d18338617b">
<feColorMatrix values="0 0 0 0 1 0 0 0 0 1 0 0 0 0 1 0.2126 0.7152 0.0722 0 0" color-interpolation-filters="sRGB"/>
</filter>
<g/>
<clipPath id="c3890e7195">
<path d="M 1.742188 0 L 905.257812 0 L 905.257812 339.007812 L 1.742188 339.007812 Z M 1.742188 0 " clip-rule="nonzero"/>
</clipPath>
<clipPath id="5edbd02e06">
<path d="M 1.742188 0 L 905.257812 0 L 905.257812 339.007812 L 1.742188 339.007812 Z M 1.742188 0 " clip-rule="nonzero"/>
</clipPath>
<clipPath id="9a17ade5f2">
<path d="M 1.742188 0 L 905.257812 0 L 905.257812 339.007812 L 1.742188 339.007812 Z M 1.742188 0 " clip-rule="nonzero"/>
</clipPath>
</defs>
<g mask="url(#251077f106)" clip-path="url(#c3890e7195)">
<g clip-path="url(#5edbd02e06)"/>
</g>
<g transform="matrix(2, 0, 0, 2, 508, 234)">
<g clip-path="url(#9a17ade5f2)">
<g fill="#000000" fill-opacity="0.4">
<g transform="translate(3.55945, 33.86666)">
<g>
<path d="M 38.46875 -23.0625 L 31 0 L 24 0 L 19.59375 -14.03125 L 15 0 L 8 0 L 0.53125 -23.0625 L 7.25 -23.0625 L 11.875 -8.34375 L 16.75 -23.0625 L 22.75 -23.0625 L 27.40625 -8.1875 L 32.25 -23.0625 Z M 38.46875 -23.0625 "/>
</g>
</g>
</g>
<g fill="#000000" fill-opacity="0.4">
<g transform="translate(45.669558, 33.86666)">
<g>
<path d="M 17.75 -4.46875 L 8 -4.46875 L 6.1875 0 L -0.46875 0 L 9.71875 -23.0625 L 16.125 -23.0625 L 26.34375 0 L 19.5625 0 Z M 15.84375 -9.28125 L 12.875 -16.65625 L 9.90625 -9.28125 Z M 15.84375 -9.28125 "/>
</g>
</g>
</g>
<g fill="#000000" fill-opacity="0.4">
<g transform="translate(74.797574, 33.86666)">
<g>
<path d="M 7.21875 -17.875 L 0.125 -17.875 L 0.125 -23.0625 L 20.78125 -23.0625 L 20.78125 -17.875 L 13.75 -17.875 L 13.75 0 L 7.21875 0 Z M 7.21875 -17.875 "/>
</g>
</g>
</g>
<g fill="#000000" fill-opacity="0.4">
<g transform="translate(100.103538, 33.86666)">
<g>
<path d="M 20.8125 -5.03125 L 20.8125 0 L 2.3125 0 L 2.3125 -23.0625 L 20.375 -23.0625 L 20.375 -18.03125 L 8.75 -18.03125 L 8.75 -14.125 L 19 -14.125 L 19 -9.25 L 8.75 -9.25 L 8.75 -5.03125 Z M 20.8125 -5.03125 "/>
</g>
</g>
</g>
<g fill="#000000" fill-opacity="0.4">
<g transform="translate(126.628628, 33.86666)">
<g>
<path d="M 12.375 -6.125 L 8.8125 -6.125 L 8.8125 0 L 2.3125 0 L 2.3125 -23.0625 L 12.84375 -23.0625 C 14.921876 -23.0625 16.734374 -22.703124 18.28125 -22 C 19.820312 -21.3125 20.007812 -20.320312 21.84375 -19.03125 C 22.671876 -17.757812 23.09375 -16.257812 23.09375 -14.53125 C 23.09375 -12.859374 22.695312 -11.40625 21.90625 -10.15625 C 21.132812 -8.921874 20.015624 -7.953124 18.5625 -7.25 L 23.5625 0 L 16.5625 0 Z M 16.5 -14.53125 C 16.5 -15.59375 16.15625 -16.414062 15.46875 -17 C 14.796876 -17.601562 13.789062 -17.90625 12.4375 -17.90625 L 8.8125 -17.90625 L 8.8125 -11.15625 L 12.4375 -11.15625 C 13.789062 -11.15625 14.796876 -11.445312 15.46875 -12.03125 C 16.15625 -12.609374 16.5 -13.445312 16.5 -14.53125 Z M 16.5 -14.53125 "/>
</g>
</g>
</g>
<g fill="#000000" fill-opacity="0.4">
<g transform="translate(155.394294, 33.86666)">
<g/>
</g>
</g>
<g fill="#000000" fill-opacity="0.4">
<g transform="translate(169.365636, 33.86666)">
<g>
<path d="M 20.5625 0.40625 L 17.9375 -1.90625 C 16.875 -1.132812 15.671876 -0.539062 14.34375 -0.125 C 13.03125 0.265626 11.65625 0.46875 10.21875 0.46875 C 8.46875 0.46875 6.890626 0.1875 5.5 -0.375 C 4.101562 -0.9375 3.007812 -1.703124 2.21875 -2.6875 C 1.421876 -3.6875 1.03125 -4.796876 1.03125 -6.03125 C 1.03125 -7.46875 1.40625 -8.726562 2.15625 -9.8125 C 2.921876 -10.914062 4.15625 -11.914062 5.84375 -12.8125 C 4.359376 -14.3125 3.625 -15.859374 3.625 -17.46875 C 3.625 -18.609374 3.9375 -19.632812 4.5625 -20.53125 C 5.203124 -21.445312 6.109376 -22.140624 7.28125 -22.625 C 8.46875 -23.125 9.828126 -23.375 11.375 -23.375 C 13.5 -23.375 15.203126 -22.875 16.5 -21.875 C 17.8125 -20.875 18.46875 -19.53125 18.46875 -17.84375 C 18.46875 -16.65625 18.125 -15.601562 17.4375 -14.6875 C 16.75 -13.765624 15.664062 -12.906248 14.1875 -12.09375 L 17.5625 -9.09375 C 18 -10.046876 18.328126 -11.140624 18.5625 -12.375 L 23.625 -10.875 C 23.1875 -8.890624 22.46875 -7.140624 21.46875 -5.625 L 23.90625 -3.46875 Z M 11.375 -19.28125 C 10.726562 -19.28125 10.21875 -19.109374 9.84375 -18.78125 C 9.484376 -18.46875 9.3125 -18.0625 9.3125 -17.5625 C 9.3125 -17.1875 9.414062 -16.820312 9.625 -16.46875 C 9.828126 -16.132812 10.226562 -15.695312 10.8125 -15.15625 C 11.6875 -15.609374 12.296876 -16.039062 12.65625 -16.4375 C 13.03125 -16.851562 13.21875 -17.28125 13.21875 -17.71875 C 13.21875 -18.195312 13.046876 -18.570312 12.71875 -18.84375 C 12.40625 -19.132812 11.953124 -19.28125 11.375 -19.28125 Z M 10.65625 -4.3125 C 11.945312 -4.3125 13.125 -4.632812 14.1875 -5.28125 L 9.21875 -9.6875 C 8.484376 -9.25 7.953124 -8.789062 7.625 -8.3125 C 7.3125 -7.828124 7.15625 -7.296876 7.15625 -6.71875 C 7.15625 -6.007812 7.46875 -5.421874 8.09375 -4.96875 C 8.734376 -4.53125 9.593752 -4.3125 10.65625 -4.3125 Z M 10.65625 -4.3125 "/>
</g>
</g>
</g>
<g fill="#000000" fill-opacity="0.4">
<g transform="translate(198.526692, 33.86666)">
<g/>
</g>
</g>
<g fill="#000000" fill-opacity="0.4">
<g transform="translate(212.49802, 33.86666)">
<g>
<path d="M 13.8125 0.46875 C 11.390626 0.46875 9.21875 -0.0390624 7.28125 -1.0625 C 5.359376 -2.078124 3.851562 -3.5 2.75 -5.3125 C 1.664062 -7.140624 1.125 -9.21875 1.125 -11.53125 C 1.125 -13.84375 1.664062 -15.90625 2.75 -17.71875 C 3.851562 -19.546876 5.359376 -20.976562 7.28125 -22 C 9.21875 -23.015624 11.390626 -23.53125 13.8125 -23.53125 C 15.914062 -23.53125 17.8125 -23.15625 19.5 -22.40625 C 21.1875 -21.65625 22.59375 -20.570312 23.71875 -19.15625 L 19.5625 -15.40625 C 18.0625 -17.21875 16.25 -18.125 14.125 -18.125 C 12.875 -18.125 11.757812 -17.84375 10.78125 -17.28125 C 9.796876 -16.734374 9.039062 -15.96875 8.5 -14.96875 C 7.976562 -13.96875 7.71875 -12.820312 7.71875 -11.53125 C 7.71875 -10.234374 7.976562 -9.09375 8.5 -8.09375 C 9.039062 -7.09375 9.796876 -6.3125 10.78125 -5.75 C 11.757812 -5.203124 12.875 -4.9375 14.125 -4.9375 C 16.25 -4.9375 18.0625 -5.84375 19.5625 -7.65625 L 23.71875 -3.875 C 22.59375 -2.476562 21.1875 -1.40625 19.5 -0.65625 C 17.8125 0.09375 15.914062 0.46875 13.8125 0.46875 Z M 13.8125 0.46875 "/>
</g>
</g>
</g>
<g fill="#000000" fill-opacity="0.4">
<g transform="translate(241.197796, 33.86666)">
<g>
<path d="M 2.3125 -23.0625 L 8.8125 -23.0625 L 8.8125 0 L 2.3125 0 Z M 2.3125 -23.0625 "/>
</g>
</g>
</g>
<g fill="#000000" fill-opacity="0.4">
<g transform="translate(256.684792, 33.86666)">
<g>
<path d="M 25.6875 -23.0625 L 15.8125 0 L 9.375 0 L -0.46875 -23.0625 L 6.59375 -23.0625 L 12.84375 -8.03125 L 19.25 -23.0625 Z M 25.6875 -23.0625 "/>
</g>
</g>
</g>
<g fill="#000000" fill-opacity="0.4">
<g transform="translate(285.81286, 33.86666)">
<g>
<path d="M 2.3125 -23.0625 L 8.8125 -23.0625 L 8.8125 0 L 2.3125 0 Z M 2.3125 -23.0625 "/>
</g>
</g>
</g>
<g fill="#000000" fill-opacity="0.4">
<g transform="translate(301.365782, 33.86666)">
<g>
<path d="M 2.3125 -23.0625 L 8.8125 -23.0625 L 8.8125 -5.15625 L 19.84375 -5.15625 L 19.84375 0 L 2.3125 0 Z M 2.3125 -23.0625 "/>
</g>
</g>
</g>
<g fill="#000000" fill-opacity="1">
<g transform="translate(2.103014, 32.410226)">
<g>
<path d="M 38.46875 -23.0625 L 31 0 L 24 0 L 19.59375 -14.03125 L 15 0 L 8 0 L 0.53125 -23.0625 L 7.25 -23.0625 L 11.875 -8.34375 L 16.75 -23.0625 L 22.75 -23.0625 L 27.40625 -8.1875 L 32.25 -23.0625 Z M 38.46875 -23.0625 "/>
</g>
</g>
</g>
<g fill="#000000" fill-opacity="1">
<g transform="translate(44.213122, 32.410226)">
<g>
<path d="M 17.75 -4.46875 L 8 -4.46875 L 6.1875 0 L -0.46875 0 L 9.71875 -23.0625 L 16.125 -23.0625 L 26.34375 0 L 19.5625 0 Z M 15.84375 -9.28125 L 12.875 -16.65625 L 9.90625 -9.28125 Z M 15.84375 -9.28125 "/>
</g>
</g>
</g>
<g fill="#000000" fill-opacity="1">
<g transform="translate(73.34114, 32.410226)">
<g>
<path d="M 7.21875 -17.875 L 0.125 -17.875 L 0.125 -23.0625 L 20.78125 -23.0625 L 20.78125 -17.875 L 13.75 -17.875 L 13.75 0 L 7.21875 0 Z M 7.21875 -17.875 "/>
</g>
</g>
</g>
<g fill="#000000" fill-opacity="1">
<g transform="translate(98.647104, 32.410226)">
<g>
<path d="M 20.8125 -5.03125 L 20.8125 0 L 2.3125 0 L 2.3125 -23.0625 L 20.375 -23.0625 L 20.375 -18.03125 L 8.75 -18.03125 L 8.75 -14.125 L 19 -14.125 L 19 -9.25 L 8.75 -9.25 L 8.75 -5.03125 Z M 20.8125 -5.03125 "/>
</g>
</g>
</g>
<g fill="#000000" fill-opacity="1">
<g transform="translate(125.172194, 32.410226)">
<g>
<path d="M 12.375 -6.125 L 8.8125 -6.125 L 8.8125 0 L 2.3125 0 L 2.3125 -23.0625 L 12.84375 -23.0625 C 14.921876 -23.0625 16.734374 -22.703124 18.28125 -22 C 19.820312 -21.3125 21.007812 -20.320312 21.84375 -19.03125 C 22.671876 -17.757812 23.09375 -16.257812 23.09375 -14.53125 C 23.09375 -12.859374 22.695312 -11.40625 21.90625 -10.15625 C 21.132812 -8.921874 20.015624 -7.953124 18.5625 -7.25 L 23.5625 0 L 16.5625 0 Z M 16.5 -14.53125 C 16.5 -15.59375 16.15625 -16.414062 15.46875 -17 C 14.796876 -17.601562 13.789062 -17.90625 12.4375 -17.90625 L 8.8125 -17.90625 L 8.8125 -11.15625 L 12.4375 -11.15625 C 13.789062 -11.15625 14.796876 -11.445312 15.46875 -12.03125 C 16.15625 -12.609374 16.5 -13.445312 16.5 -14.53125 Z M 16.5 -14.53125 "/>
</g>
</g>
</g>
<g fill="#000000" fill-opacity="1">
<g transform="translate(153.937858, 32.410226)">
<g/>
</g>
</g>
<g fill="#000000" fill-opacity="1">
<g transform="translate(167.9092, 32.410226)">
<g>
<path d="M 20.5625 0.40625 L 17.9375 -1.90625 C 16.875 -1.132812 15.671876 -0.539062 14.34375 -0.125 C 13.03125 0.265626 11.65625 0.46875 10.21875 0.46875 C 8.46875 0.46875 6.890626 0.1875 5.5 -0.375 C 4.101562 -0.9375 3.007812 -1.703124 2.21875 -2.6875 C 1.421876 -3.6875 1.03125 -4.796876 1.03125 -6.03125 C 1.03125 -7.46875 1.40625 -8.726562 2.15625 -9.8125 C 2.921876 -10.914062 4.15625 -11.914062 5.84375 -12.8125 C 4.359376 -14.3125 3.625 -15.859374 3.625 -17.46875 C 3.625 -18.609374 3.9375 -19.632812 4.5625 -20.53125 C 5.203124 -21.445312 6.109376 -22.140624 7.28125 -22.625 C 8.46875 -23.125 9.828126 -23.375 11.375 -23.375 C 13.5 -23.375 15.203126 -22.875 16.5 -21.875 C 17.8125 -20.875 18.46875 -19.53125 18.46875 -17.84375 C 18.46875 -16.65625 18.125 -15.601562 17.4375 -14.6875 C 16.75 -13.765624 15.664062 -12.906248 14.1875 -12.09375 L 17.5625 -9.09375 C 18 -10.046876 18.328126 -11.140624 18.5625 -12.375 L 23.625 -10.875 C 23.1875 -8.890624 22.46875 -7.140624 21.46875 -5.625 L 23.90625 -3.46875 Z M 11.375 -19.28125 C 10.726562 -19.28125 10.21875 -19.109374 9.84375 -18.78125 C 9.484376 -18.46875 9.3125 -18.0625 9.3125 -17.5625 C 9.3125 -17.1875 9.414062 -16.820312 9.625 -16.46875 C 9.828126 -16.132812 10.226562 -15.695312 10.8125 -15.15625 C 11.6875 -15.609374 12.296876 -16.039062 12.65625 -16.4375 C 13.03125 -16.851562 13.21875 -17.28125 13.21875 -17.71875 C 13.21875 -18.195312 13.046876 -18.570312 12.71875 -18.84375 C 12.40625 -19.132812 11.953124 -19.28125 11.375 -19.28125 Z M 10.65625 -4.3125 C 11.945312 -4.3125 13.125 -4.632812 14.1875 -5.28125 L 9.21875 -9.6875 C 8.484376 -9.25 7.953124 -8.789062 7.625 -8.3125 C 7.3125 -7.828124 7.15625 -7.296876 7.15625 -6.71875 C 7.15625 -6.007812 7.46875 -5.421874 8.09375 -4.96875 C 8.734376 -4.53125 9.593752 -4.3125 10.65625 -4.3125 Z M 10.65625 -4.3125 "/>
</g>
</g>
</g>
<g fill="#000000" fill-opacity="1">
<g transform="translate(197.070256, 32.410226)">
<g/>
</g>
</g>
<g fill="#000000" fill-opacity="1">
<g transform="translate(211.041586, 32.410226)">
<g>
<path d="M 13.8125 0.46875 C 11.390626 0.46875 9.21875 -0.0390624 7.28125 -1.0625 C 5.359376 -2.078124 3.851562 -3.5 2.75 -5.3125 C 1.664062 -7.140624 1.125 -9.21875 1.125 -11.53125 C 1.125 -13.84375 1.664062 -15.90625 2.75 -17.71875 C 3.851562 -19.546876 5.359376 -20.976562 7.28125 -22 C 9.21875 -23.015624 11.390626 -23.53125 13.8125 -23.53125 C 15.914062 -23.53125 17.8125 -23.15625 19.5 -22.40625 C 21.1875 -21.65625 22.59375 -20.570312 23.71875 -19.15625 L 19.5625 -15.40625 C 18.0625 -17.21875 16.25 -18.125 14.125 -18.125 C 12.875 -18.125 11.757812 -17.84375 10.78125 -17.28125 C 9.796876 -16.734374 9.039062 -15.96875 8.5 -14.96875 C 7.976562 -13.96875 7.71875 -12.820312 7.71875 -11.53125 C 7.71875 -10.234374 7.976562 -9.09375 8.5 -8.09375 C 9.039062 -7.09375 9.796876 -6.3125 10.78125 -5.75 C 11.757812 -5.203124 12.875 -4.9375 14.125 -4.9375 C 16.25 -4.9375 18.0625 -5.84375 19.5625 -7.65625 L 23.71875 -3.875 C 22.59375 -2.476562 21.1875 -1.40625 19.5 -0.65625 C 17.8125 0.09375 15.914062 0.46875 13.8125 0.46875 Z M 13.8125 0.46875 "/>
</g>
</g>
</g>
<g fill="#000000" fill-opacity="1">
<g transform="translate(239.741362, 32.410226)">
<g>
<path d="M 2.3125 -23.0625 L 8.8125 -23.0625 L 8.8125 0 L 2.3125 0 Z M 2.3125 -23.0625 "/>
</g>
</g>
</g>
<g fill="#000000" fill-opacity="1">
<g transform="translate(255.228358, 32.410226)">
<g>
<path d="M 25.6875 -23.0625 L 15.8125 0 L 9.375 0 L -0.46875 -23.0625 L 6.59375 -23.0625 L 12.84375 -8.03125 L 19.25 -23.0625 Z M 25.6875 -23.0625 "/>
</g>
</g>
</g>
<g fill="#000000" fill-opacity="1">
<g transform="translate(284.356426, 32.410226)">
<g>
<path d="M 2.3125 -23.0625 L 8.8125 -23.0625 L 8.8125 0 L 2.3125 0 Z M 2.3125 -23.0625 "/>
</g>
</g>
</g>
<g fill="#000000" fill-opacity="1">
<g transform="translate(299.909348, 32.410226)">
<g>
<path d="M 2.3125 -23.0625 L 8.8125 -23.0625 L 8.8125 -5.15625 L 19.84375 -5.15625 L 19.84375 0 L 2.3125 0 Z M 2.3125 -23.0625 "/>
</g>
</g>
</g>
</g>
</g>
</svg>